<svg width="570" height="393" viewBox="0 0 570 393" fill="none" xmlns="http://www.w3.org/2000/svg">
<path d="M94.0495 168.205C81.4988 176.831 71.7877 188.985 66.1445 203.13C60.5012 217.275 59.1791 232.775 62.3454 247.672C65.5117 262.568 73.0242 276.191 83.9329 286.818C94.8416 297.445 108.656 304.598 123.631 307.373C138.605 310.149 154.066 308.421 168.058 302.41C182.05 296.398 193.946 286.372 202.24 273.6C210.535 260.828 214.856 245.883 214.656 230.655C214.457 215.427 209.746 200.6 201.121 188.049C195.393 179.716 188.08 172.592 179.6 167.085C171.12 161.578 161.637 157.795 151.695 155.952C141.752 154.109 131.544 154.243 121.654 156.345C111.763 158.448 102.383 162.478 94.0495 168.205V168.205ZM150.092 225.365L170.743 255.413L148.31 270.83L127.659 240.783C122.94 240.567 118.408 238.873 114.702 235.943C110.997 233.012 108.306 228.991 107.008 224.449C105.711 219.906 105.873 215.07 107.472 210.625C109.071 206.179 112.026 202.348 115.919 199.672C119.813 196.997 124.448 195.611 129.171 195.712C133.895 195.812 138.467 197.393 142.243 200.233C146.019 203.072 148.808 207.025 150.216 211.534C151.625 216.044 151.581 220.882 150.092 225.365V225.365Z" fill="#38A3A5"/>
<path opacity="0.05" d="M94.0495 168.205C81.4988 176.831 71.7877 188.985 66.1445 203.13C60.5012 217.275 59.1791 232.775 62.3454 247.672C65.5117 262.568 73.0242 276.191 83.9329 286.818C94.8416 297.445 108.656 304.598 123.631 307.373C138.605 310.149 154.066 308.421 168.058 302.41C182.05 296.398 193.946 286.372 202.24 273.6C210.535 260.828 214.856 245.883 214.656 230.655C214.457 215.427 209.746 200.6 201.121 188.049C195.393 179.716 188.08 172.592 179.6 167.085C171.12 161.578 161.637 157.795 151.695 155.952C141.752 154.109 131.544 154.243 121.654 156.345C111.763 158.448 102.383 162.478 94.0495 168.205V168.205ZM150.092 225.365L170.743 255.413L148.31 270.83L127.659 240.783C122.94 240.567 118.408 238.873 114.702 235.943C110.997 233.012 108.306 228.991 107.008 224.449C105.711 219.906 105.873 215.07 107.472 210.625C109.071 206.179 112.026 202.348 115.919 199.672C119.813 196.997 124.448 195.611 129.171 195.712C133.895 195.812 138.467 197.393 142.243 200.233C146.019 203.072 148.808 207.025 150.216 211.534C151.625 216.044 151.581 220.882 150.092 225.365V225.365Z" fill="black"/>
<path d="M81.5885 150.074C65.4519 161.165 52.9662 176.791 45.7106 194.978C38.455 213.164 36.7552 233.094 40.8261 252.246C44.8971 271.398 54.556 288.914 68.5815 302.577C82.6069 316.24 100.369 325.437 119.621 329.005C138.874 332.573 158.752 330.352 176.742 322.623C194.733 314.894 210.027 302.003 220.691 285.582C231.355 269.161 236.911 249.946 236.654 230.367C236.398 210.788 230.342 191.725 219.251 175.588C204.379 153.95 181.521 139.105 155.704 134.32C129.887 129.536 103.227 135.202 81.5885 150.074V150.074ZM153.639 223.57L180.187 262.197L151.342 282.021L124.795 243.395C118.725 243.117 112.896 240.94 108.13 237.172C103.365 233.403 99.9029 228.232 98.2341 222.39C96.5654 216.548 96.7737 210.329 98.8298 204.611C100.886 198.894 104.686 193.967 109.693 190.525C114.7 187.084 120.662 185.302 126.737 185.431C132.811 185.561 138.692 187.595 143.548 191.247C148.404 194.898 151.991 199.983 153.801 205.783C155.612 211.583 155.555 217.805 153.639 223.57V223.57Z" fill="#38A3A5"/>
<g clip-path="url(#clip0)">
<path d="M569.446 392.642C543.402 388.828 518.355 385.539 494.305 382.777L503.815 367.388C500.609 366.441 486.523 375.214 486.523 375.214L499.006 330.474C482.882 332.027 474.677 377.731 474.677 377.731L456.665 362.182L465.384 379.609C391.778 372.012 328.209 369.027 274.739 368.683L282.878 355.511C279.673 354.564 265.586 363.337 265.586 363.337L278.07 318.597C261.945 320.15 253.741 365.854 253.741 365.854L235.728 350.306L244.963 368.763C200.138 369.307 163.583 371.699 135.368 374.489C143.601 353.95 171.565 334.509 171.565 334.509C150.211 339.727 139.009 348.585 133.155 356.864C132.707 331.455 135.717 284.364 158.082 232.317C158.082 232.317 113.935 312.521 119.558 366.521L120.231 376.108C82.8125 380.42 64 385 64 385L569.446 392.642Z" fill="#3F3D56"/>
<path d="M332.763 43.5651V367.665C332.759 371.526 331.223 375.227 328.492 377.956C325.761 380.685 322.059 382.219 318.198 382.22H186.623C184.71 382.223 182.816 381.849 181.048 381.119C179.28 380.389 177.673 379.317 176.32 377.965C174.967 376.613 173.894 375.007 173.163 373.24C172.432 371.472 172.056 369.578 172.058 367.665V43.5651C172.058 41.6523 172.435 39.7583 173.167 37.9911C173.898 36.2239 174.971 34.6182 176.324 33.2657C177.676 31.9132 179.282 30.8403 181.049 30.1084C182.816 29.3765 184.71 28.9999 186.623 29.0001H206.313V31.5251C206.313 34.7056 207.576 37.756 209.824 40.0055C212.073 42.2549 215.123 43.5191 218.303 43.5201H285.223C287.783 43.5255 290.277 42.7049 292.333 41.1801C292.749 40.8777 293.143 40.5469 293.513 40.1901C294.685 39.0716 295.617 37.7268 296.253 36.2373C296.889 34.7478 297.215 33.1447 297.213 31.5251V29.0001H318.198C320.111 28.9995 322.005 29.3758 323.773 30.1076C325.54 30.8393 327.146 31.9121 328.499 33.2647C329.851 34.6173 330.924 36.2232 331.656 37.9906C332.387 39.758 332.764 41.6522 332.763 43.5651V43.5651Z" fill="#3F3D56"/>
<path d="M208.713 86.5C210.646 86.5 212.213 84.933 212.213 83C212.213 81.067 210.646 79.5 208.713 79.5C206.78 79.5 205.213 81.067 205.213 83C205.213 84.933 206.78 86.5 208.713 86.5Z" fill="#F2F2F2"/>
<path d="M293.513 40.19C293.143 40.5468 292.749 40.8776 292.333 41.18C296.62 48.7234 302.427 55.2938 309.387 60.4744C316.347 65.6551 324.307 69.333 332.763 71.275V69.715C324.535 67.7741 316.799 64.1482 310.044 59.0663C303.288 53.9845 297.659 47.5571 293.513 40.19Z" fill="#38A3A5"/>
<path d="M263.608 43.52H261.968C267.79 58.313 277.393 71.319 289.816 81.2381C302.239 91.1573 317.048 97.6423 332.763 100.045V98.495C317.458 96.1181 303.034 89.7999 290.909 80.1613C278.784 70.5226 269.376 57.8953 263.608 43.52V43.52Z" fill="#38A3A5"/>
<path d="M233.398 43.52H231.818C245.033 89.39 284.908 123.535 332.763 129.08V127.555C285.738 122.035 246.548 88.54 233.398 43.52Z" fill="#38A3A5"/>
<path d="M197.213 108.911H196.302V108H196.124V108.911H195.213V109.089H196.124V110H196.302V109.089H197.213V108.911Z" fill="#F2F2F2"/>
<path d="M258.713 63.411H257.802V62.5H257.624V63.411H256.713V63.589H257.624V64.5H257.802V63.589H258.713V63.411Z" fill="#F2F2F2"/>
<path d="M206.213 144.911H205.302V144H205.124V144.911H204.213V145.089H205.124V146H205.302V145.089H206.213V144.911Z" fill="#F2F2F2"/>
<path d="M248.213 118.411H247.302V117.5H247.124V118.411H246.213V118.589H247.124V119.5H247.302V118.589H248.213V118.411Z" fill="#F2F2F2"/>
<path d="M308.213 134.911H307.302V134H307.124V134.911H306.213V135.089H307.124V136H307.302V135.089H308.213V134.911Z" fill="#F2F2F2"/>
<path d="M297.713 93.5C298.818 93.5 299.713 92.6046 299.713 91.5C299.713 90.3954 298.818 89.5 297.713 89.5C296.609 89.5 295.713 90.3954 295.713 91.5C295.713 92.6046 296.609 93.5 297.713 93.5Z" fill="#FF6584"/>
<path d="M226.063 138.4L224.928 138.575C225.283 140.845 225.563 143.165 225.768 145.46L226.913 145.36C226.708 143.035 226.423 140.695 226.063 138.4Z" fill="#E6E6E6"/>
<path d="M222.958 124.73L221.858 125.065C222.523 127.265 223.118 129.52 223.623 131.765L224.748 131.51C224.233 129.24 223.628 126.96 222.958 124.73Z" fill="#E6E6E6"/>
<path d="M218.003 111.62L216.958 112.1C217.918 114.195 218.818 116.345 219.633 118.495L220.708 118.09C219.883 115.915 218.978 113.735 218.003 111.62Z" fill="#E6E6E6"/>
<path d="M211.303 99.33L210.333 99.945C211.568 101.885 212.753 103.895 213.853 105.91L214.863 105.36C213.753 103.32 212.553 101.29 211.303 99.33Z" fill="#E6E6E6"/>
<path d="M202.973 88.0651L202.098 88.8101C203.588 90.5601 205.038 92.3901 206.408 94.2401L207.328 93.5551C205.948 91.685 204.483 89.835 202.973 88.0651Z" fill="#E6E6E6"/>
<path d="M193.183 78.035L192.418 78.89C194.138 80.425 195.823 82.04 197.428 83.685L198.253 82.88C196.628 81.215 194.923 79.585 193.183 78.035Z" fill="#E6E6E6"/>
<path d="M182.123 69.425L181.478 70.375C183.388 71.66 185.278 73.03 187.093 74.445L187.803 73.54C185.963 72.11 184.053 70.725 182.123 69.425Z" fill="#E6E6E6"/>
<path d="M172.058 63.445V64.745C173.253 65.37 174.438 66.025 175.598 66.695L176.173 65.7C174.823 64.92 173.452 64.1683 172.058 63.445Z" fill="#E6E6E6"/>
<path d="M225.803 246.401C225.99 245.283 226.16 244.142 226.311 243.009L227.45 243.16C227.298 244.306 227.126 245.46 226.937 246.59L225.803 246.401Z" fill="#E6E6E6"/>
<path d="M222.599 259.891L223.698 260.233C224.387 258.011 225.011 255.735 225.551 253.468L224.432 253.203C223.896 255.446 223.283 257.694 222.599 259.891Z" fill="#E6E6E6"/>
<path d="M217.578 272.807L218.621 273.296C219.613 271.192 220.541 269.024 221.384 266.854L220.311 266.435C219.479 268.582 218.56 270.727 217.578 272.807Z" fill="#E6E6E6"/>
<path d="M210.822 284.924L211.787 285.55C213.058 283.6 214.278 281.578 215.414 279.545L214.411 278.982C213.29 280.994 212.08 282.992 210.822 284.924Z" fill="#E6E6E6"/>
<path d="M202.464 295.993L203.335 296.748C204.865 294.984 206.348 293.149 207.754 291.293L206.833 290.604C205.447 292.439 203.979 294.251 202.464 295.993Z" fill="#E6E6E6"/>
<path d="M192.677 305.816L193.434 306.68C195.192 305.146 196.911 303.528 198.554 301.884L197.741 301.069C196.117 302.697 194.412 304.293 192.677 305.816Z" fill="#E6E6E6"/>
<path d="M181.65 314.211L182.285 315.173C184.227 313.891 186.155 312.524 188.004 311.117L187.309 310.199C185.477 311.595 183.573 312.946 181.65 314.211Z" fill="#E6E6E6"/>
<path d="M176.303 318.825C174.913 319.61 173.493 320.37 172.058 321.09V319.8C173.298 319.17 174.528 318.505 175.733 317.83L176.303 318.825Z" fill="#E6E6E6"/>
<path d="M226.141 152.553L227.29 152.532C227.311 153.693 227.313 154.859 227.295 156L226.146 155.982C226.163 154.854 226.161 153.701 226.141 152.553Z" fill="#E6E6E6"/>
<path d="M177.108 179.816H294.713C303.465 179.816 311.859 183.293 318.048 189.481C324.236 195.67 327.713 204.064 327.713 212.816V217.184H210.108C201.356 217.184 192.962 213.707 186.774 207.519C180.585 201.33 177.108 192.936 177.108 184.184V179.816V179.816Z" fill="white"/>
<path d="M255.158 381.761C255.043 381.573 252.338 377.056 251.4 367.675C250.539 359.068 251.093 344.562 258.616 324.326C272.869 285.99 255.331 255.059 255.152 254.751L256.017 254.249C256.063 254.327 260.588 262.213 263.262 274.771C266.794 291.42 265.508 308.73 259.554 324.674C245.325 362.944 255.903 381.061 256.012 381.24L255.158 381.761Z" fill="#F2F2F2"/>
<path d="M249.585 252.5C253.175 252.5 256.085 249.59 256.085 246C256.085 242.41 253.175 239.5 249.585 239.5C245.995 239.5 243.085 242.41 243.085 246C243.085 249.59 245.995 252.5 249.585 252.5Z" fill="#38A3A5"/>
<path d="M270.085 276.5C273.675 276.5 276.585 273.59 276.585 270C276.585 266.41 273.675 263.5 270.085 263.5C266.495 263.5 263.585 266.41 263.585 270C263.585 273.59 266.495 276.5 270.085 276.5Z" fill="#F2F2F2"/>
<path d="M256.085 292.5C259.675 292.5 262.585 289.59 262.585 286C262.585 282.41 259.675 279.5 256.085 279.5C252.495 279.5 249.585 282.41 249.585 286C249.585 289.59 252.495 292.5 256.085 292.5Z" fill="#38A3A5"/>
<path d="M273.085 306C276.675 306 279.585 303.09 279.585 299.5C279.585 295.91 276.675 293 273.085 293C269.495 293 266.585 295.91 266.585 299.5C266.585 303.09 269.495 306 273.085 306Z" fill="#38A3A5"/>
<path d="M251.085 327C254.675 327 257.585 324.09 257.585 320.5C257.585 316.91 254.675 314 251.085 314C247.495 314 244.585 316.91 244.585 320.5C244.585 324.09 247.495 327 251.085 327Z" fill="#F2F2F2"/>
<path d="M259.085 382C259.085 382 252.585 366 272.085 354L259.085 382Z" fill="#F2F2F2"/>
<path d="M251.091 381.71C251.091 381.71 248.133 364.695 225.237 364.841L251.091 381.71Z" fill="#F2F2F2"/>
<path opacity="0.2" d="M225.213 238.5C247.305 238.5 265.213 220.591 265.213 198.5C265.213 176.409 247.305 158.5 225.213 158.5C203.122 158.5 185.213 176.409 185.213 198.5C185.213 220.591 203.122 238.5 225.213 238.5Z" fill="#38A3A5"/>
<path opacity="0.2" d="M225.213 226.669C240.771 226.669 253.382 214.057 253.382 198.5C253.382 182.943 240.771 170.331 225.213 170.331C209.656 170.331 197.044 182.943 197.044 198.5C197.044 214.057 209.656 226.669 225.213 226.669Z" fill="#38A3A5"/>
<path d="M225.213 217.092C235.481 217.092 243.805 208.768 243.805 198.5C243.805 188.232 235.481 179.908 225.213 179.908C214.945 179.908 206.622 188.232 206.622 198.5C206.622 208.768 214.945 217.092 225.213 217.092Z" fill="#38A3A5"/>
<path d="M228.594 194.49C228.594 193.92 228.449 193.358 228.174 192.859C227.899 192.359 227.502 191.937 227.02 191.632C226.538 191.327 225.986 191.149 225.417 191.115C224.847 191.081 224.278 191.191 223.763 191.436C223.248 191.68 222.803 192.052 222.47 192.515C222.136 192.978 221.926 193.517 221.857 194.084C221.789 194.65 221.865 195.225 222.078 195.754C222.292 196.283 222.636 196.749 223.078 197.11L221.833 205.824H228.594L227.349 197.11C227.738 196.793 228.052 196.394 228.267 195.94C228.482 195.487 228.594 194.992 228.594 194.49V194.49Z" fill="white"/>
<path d="M412.054 55.65C412.054 55.65 400.903 45.6526 385.907 64.4939C370.91 83.3352 347.455 92.5636 342.072 99.8695C342.072 99.8695 364.374 90.6411 372.064 86.7959C379.754 82.9507 379.37 83.7198 379.37 83.7198C379.37 83.7198 368.988 91.0256 367.065 98.3314C365.143 105.637 366.681 111.789 363.22 119.095C359.759 126.401 429.357 124.094 429.357 124.094C429.357 124.094 436.278 112.174 434.356 99.8695C432.433 87.5649 433.587 57.1881 412.054 55.65Z" fill="#2F2E41"/>
<path d="M390.962 87.1011C390.962 87.1011 393.387 104.074 382.995 107.885C372.603 111.695 376.414 116.891 376.414 116.891L392.002 124.512L408.629 119.316L414.171 111.002C414.171 111.002 405.165 108.924 407.589 102.689C410.014 96.4537 410.707 94.3754 410.707 94.3754L390.962 87.1011Z" fill="#FFB9B9"/>
<path opacity="0.1" d="M390.962 87.1011C390.962 87.1011 393.387 104.074 382.995 107.885C372.603 111.695 376.414 116.891 376.414 116.891L392.002 124.512L408.629 119.316L414.171 111.002C414.171 111.002 405.165 108.924 407.589 102.689C410.014 96.4537 410.707 94.3754 410.707 94.3754L390.962 87.1011Z" fill="black"/>
<path d="M434.608 135.596C434.608 135.596 432.183 167.465 432.876 168.85C433.569 170.236 432.876 218.385 432.876 218.385C432.876 218.385 437.726 244.365 431.491 245.75C425.255 247.136 426.641 216.653 426.641 216.653L420.406 176.471L421.099 136.636L434.608 135.596Z" fill="#FFB9B9"/>
<path opacity="0.1" d="M434.608 135.596C434.608 135.596 432.183 167.465 432.876 168.85C433.569 170.236 432.876 218.385 432.876 218.385C432.876 218.385 437.726 244.365 431.491 245.75C425.255 247.136 426.641 216.653 426.641 216.653L420.406 176.471L421.099 136.636L434.608 135.596Z" fill="black"/>
<path d="M367.061 231.548C367.061 231.548 355.63 274.847 355.976 295.978C356.323 317.108 360.826 346.551 360.826 346.551C360.826 346.551 361.519 359.368 360.48 360.753C359.44 362.139 365.675 368.028 365.675 368.028L372.257 364.217L374.682 361.446V359.022C374.682 359.022 370.871 347.244 373.989 337.891C377.106 328.539 378.838 304.984 375.721 297.71L397.197 233.973L367.061 231.548Z" fill="#FFB9B9"/>
<path d="M366.368 362.485C366.368 362.485 362.212 357.29 359.44 359.022C356.669 360.754 352.166 372.531 352.166 372.531C352.166 372.531 336.578 387.426 347.663 388.119C358.748 388.812 363.597 385.001 364.983 382.23C366.368 379.459 379.185 372.185 379.185 372.185C379.185 372.185 377.799 359.021 375.721 358.675C373.643 358.329 370.525 363.871 370.525 363.871L366.368 362.485Z" fill="#2F2E41"/>
<path d="M404.818 234.319V277.272C404.858 282.484 405.205 287.689 405.857 292.86C406.897 300.481 399.969 357.29 399.969 357.29L400.661 367.335L409.321 366.642L410.36 357.982L422.831 319.879C422.831 319.879 426.987 296.67 424.909 288.01C422.831 279.351 435.647 223.927 435.647 223.927L404.818 234.319Z" fill="#FFB9B9"/>
<path d="M397.89 364.91L400.456 364.353C400.456 364.353 402.393 360.061 404.818 361.1C406.524 361.887 408.141 362.855 409.64 363.989L410.707 365.949C410.707 365.949 413.132 371.145 416.249 374.609C419.367 378.073 422.831 385.694 417.635 386.387C412.439 387.08 405.511 387.426 403.433 385.694C401.354 383.962 402.74 381.191 400.661 380.498C398.583 379.805 396.851 377.727 397.197 377.034C397.544 376.341 397.89 364.91 397.89 364.91Z" fill="#2F2E41"/>
<path d="M404.818 99.0322C413.321 99.0322 420.213 92.1396 420.213 83.6371C420.213 75.1346 413.321 68.242 404.818 68.242C396.316 68.242 389.423 75.1346 389.423 83.6371C389.423 92.1396 396.316 99.0322 404.818 99.0322Z" fill="#FFB9B9"/>
<path d="M375.721 110.656L380.296 109.059C380.296 109.059 378.492 112.042 388.191 113.774C397.89 115.506 407.935 116.119 412.438 110.443C412.438 110.443 414.171 109.617 416.596 112.042C419.02 114.466 420.406 113.774 420.406 113.774L418.674 122.78L415.21 139.407L410.707 151.877L397.89 149.106L384.034 139.06L378.838 125.551V113.081L375.721 110.656Z" fill="#38A3A5"/>
<path d="M417.981 115.505L421.445 113.081C421.445 113.081 433.223 115.159 433.915 120.701L424.909 138.021C426.746 142.84 426.622 148.188 424.563 152.916C421.099 160.883 421.445 162.615 421.445 162.615L419.02 173.007L375.028 176.471C375.028 176.471 373.296 172.314 372.603 171.622C371.911 170.929 371.911 168.504 372.603 168.504C373.296 168.504 372.603 167.465 371.911 166.426C371.218 165.386 370.871 165.04 371.911 163.654C372.95 162.269 370.179 149.799 370.179 149.799V136.289L358.401 120.701C358.401 120.701 362.558 114.466 364.636 113.774C366.715 113.081 376.601 110.349 376.601 110.349L378.838 113.643L381.956 138.714L386.459 153.955L405.42 150.734L412.785 138.368L417.635 123.819L417.981 115.505Z" fill="#38A3A5"/>
<path d="M431.144 118.623L433.915 120.701C433.915 120.701 436.34 140.1 435.647 141.485C434.955 142.871 422.831 144.256 422.484 143.564C422.138 142.871 431.144 118.623 431.144 118.623Z" fill="#38A3A5"/>
<path d="M373.989 108.924L377.453 131.786C377.453 131.786 374.335 165.733 375.028 172.661L375.721 174.739C375.721 174.739 374.335 174.046 373.989 175.432C373.642 176.817 373.989 181.321 373.989 181.321C373.989 181.321 371.911 183.399 371.218 194.83C370.525 206.261 362.211 233.626 365.329 234.666C368.447 235.705 387.152 240.901 397.197 239.861C407.243 238.822 443.268 226.698 442.922 223.581C442.575 220.463 425.255 176.471 425.255 176.471C425.255 176.471 422.138 171.275 422.138 170.582C422.138 169.89 426.295 167.118 425.255 164.347C424.216 161.576 418.674 132.479 418.674 132.479L422.484 111.695L417.288 110.31L413.478 130.4C413.478 130.4 398.583 137.675 382.995 131.093L379.531 107.538L373.989 108.924Z" fill="#2F2E41"/>
<path d="M390.655 72.5885C390.655 72.5885 416.288 90.2547 423.216 82.2876C430.144 74.3205 411.092 67.3926 411.092 67.3926L395.158 65.6606L390.655 72.5885Z" fill="#2F2E41"/>
<path d="M350.827 260.521C353.466 262.485 356.73 263.419 360.008 263.149C363.286 262.878 366.353 261.422 368.634 259.052C370.914 256.682 372.253 253.562 372.397 250.276C372.542 246.99 371.484 243.764 369.42 241.203C367.356 238.641 364.43 236.921 361.188 236.363C357.947 235.805 354.613 236.449 351.812 238.173C349.011 239.898 346.935 242.584 345.974 245.73C345.012 248.875 345.23 252.263 346.588 255.259L311.235 284.695L306.528 279.108L304.413 280.523L302.059 277.729L303.993 276.1L301.639 273.307L298.631 275.841L300.079 277.56L296.856 280.276L295.408 278.557L290.681 282.54L292.853 285.119L294.572 283.67L296.926 286.464L294.777 288.274L299.122 293.431L293.965 297.776L299.215 304.008L350.827 260.521ZM359.655 240.775C361.416 240.925 363.094 241.595 364.475 242.699C365.857 243.803 366.88 245.292 367.415 246.977C367.95 248.663 367.973 250.469 367.482 252.168C366.991 253.866 366.007 255.381 364.654 256.52C363.302 257.66 361.642 258.373 359.885 258.569C358.127 258.765 356.351 258.435 354.781 257.622C353.211 256.809 351.917 255.548 351.064 253.999C350.21 252.451 349.835 250.684 349.985 248.922C350.187 246.559 351.319 244.374 353.132 242.846C354.946 241.318 357.292 240.573 359.655 240.775Z" fill="#38A3A5"/>
<path d="M355.976 139.753C355.976 139.753 358.401 171.622 357.708 173.007C357.016 174.393 357.708 222.542 357.708 222.542C357.708 222.542 352.859 248.521 359.094 249.907C365.329 251.293 363.943 220.81 363.943 220.81L370.179 180.628L369.486 140.792L355.976 139.753Z" fill="#FFB9B9"/>
<path d="M361.172 119.662L358.401 120.701C358.401 120.701 353.205 142.524 354.591 142.524C355.976 142.524 372.603 144.603 372.603 143.91C372.603 143.217 369.486 126.244 369.486 126.244L361.172 119.662Z" fill="#38A3A5"/>
</g>
<path d="M527.605 63.7949C526.207 66.7718 525.942 70.1567 526.86 73.315C527.779 76.4732 529.818 79.1881 532.595 80.9506C535.372 82.7132 538.696 83.4025 541.945 82.8892C545.194 82.376 548.144 80.6955 550.242 78.1627C552.341 75.6299 553.444 72.4188 553.344 69.1312C553.244 65.8436 551.949 62.7052 549.701 60.3043C547.452 57.9034 544.406 56.4049 541.132 56.0896C537.858 55.7743 534.581 56.6639 531.916 58.5916L496.023 29.8165L500.559 24.0899L498.751 22.2995L501.019 19.4362L503.001 21.0064L505.27 18.1431L502.186 15.7006L500.79 17.4626L497.486 14.8456L498.882 13.0835L494.037 9.24528L491.943 11.8883L493.705 13.284L491.437 16.1473L489.234 14.4027L485.047 19.6887L479.761 15.5015L474.702 21.8889L527.605 63.7949ZM548.715 68.508C548.918 70.2645 548.597 72.042 547.79 73.6158C546.984 75.1895 545.729 76.4887 544.184 77.3491C542.639 78.2095 540.874 78.5926 539.111 78.4497C537.349 78.3069 535.668 77.6446 534.282 76.5466C532.896 75.4486 531.866 73.9642 531.324 72.2812C530.781 70.5982 530.75 68.792 531.234 67.0912C531.718 65.3904 532.695 63.8713 534.043 62.7261C535.39 61.5808 537.047 60.8607 538.803 60.657C541.159 60.3837 543.526 61.0574 545.385 62.5298C547.244 64.0021 548.441 66.1526 548.715 68.508Z" fill="#38A3A5"/>
<defs>
<clipPath id="clip0">
<rect width="505.446" height="363.642" fill="white" transform="translate(64 29)"/>
</clipPath>
</defs>
</svg>
