<svg width="431" height="374" viewBox="0 0 431 374" fill="none" xmlns="http://www.w3.org/2000/svg">
<path d="M120.012 84.5378L141.978 106.674L142.438 106.167L150.99 113.951L150.133 114.889L155.017 119.814L155.728 119.088L163.97 127.19L163.159 128.015L234.84 200.246C236.716 202.139 237.763 204.698 237.753 207.363C237.743 210.027 236.676 212.579 234.787 214.458L154.999 293.64C153.106 295.515 150.546 296.563 147.882 296.553C145.217 296.543 142.665 295.476 140.787 293.586L25.9581 177.879C24.083 175.986 23.0355 173.426 23.0455 170.761C23.0556 168.097 24.1223 165.545 26.0117 163.666L105.8 84.4842C107.693 82.61 110.253 81.5631 112.917 81.5731C115.581 81.5832 118.133 82.6493 120.012 84.5378Z" fill="#3F3D56"/>
<path d="M230.412 209.769L150.343 289.23C149.76 289.808 148.971 290.131 148.149 290.128C147.328 290.125 146.542 289.796 145.962 289.213L30.3697 172.737C29.7918 172.154 29.469 171.365 29.4722 170.543C29.4753 169.722 29.8041 168.936 30.3863 168.356L110.455 88.8953C111.038 88.3174 111.827 87.9947 112.649 87.9978C113.47 88.0009 114.257 88.3297 114.836 88.9119L230.428 205.388C231.006 205.972 231.329 206.761 231.326 207.582C231.323 208.403 230.994 209.19 230.412 209.769Z" fill="white"/>
<path d="M68.5964 126.775C68.7146 126.317 68.4398 125.851 67.9827 125.733C67.5256 125.615 67.0593 125.889 66.941 126.346C66.8228 126.804 67.0975 127.27 67.5546 127.388C68.0118 127.506 68.4781 127.232 68.5964 126.775Z" fill="white"/>
<path d="M165.11 157.199L98.2724 223.529C98.0641 223.738 97.8166 223.903 97.5443 224.016C97.272 224.128 96.9801 224.186 96.6854 224.185C96.3907 224.185 96.0991 224.126 95.8272 224.012C95.5553 223.899 95.3085 223.733 95.1009 223.524C94.8933 223.314 94.7291 223.066 94.6177 222.794C94.5062 222.521 94.4497 222.229 94.4514 221.934C94.4531 221.639 94.5129 221.348 94.6275 221.076C94.7421 220.805 94.9092 220.559 95.1191 220.352L161.956 154.022C162.165 153.814 162.412 153.648 162.684 153.536C162.957 153.423 163.249 153.366 163.543 153.366C163.838 153.367 164.13 153.426 164.401 153.539C164.673 153.653 164.92 153.819 165.128 154.028C165.335 154.237 165.499 154.485 165.611 154.758C165.722 155.031 165.779 155.323 165.777 155.617C165.776 155.912 165.716 156.203 165.601 156.475C165.487 156.746 165.319 156.993 165.11 157.199L165.11 157.199Z" fill="#E6E6E6"/>
<path d="M149.8 186.627L127.816 208.445C127.607 208.652 127.36 208.816 127.088 208.928C126.816 209.039 126.525 209.096 126.231 209.095C125.937 209.094 125.646 209.035 125.375 208.921C125.103 208.808 124.857 208.642 124.65 208.433C124.443 208.225 124.279 207.977 124.168 207.705C124.056 207.433 123.999 207.142 124 206.848C124.002 206.554 124.061 206.263 124.174 205.992C124.288 205.721 124.454 205.474 124.662 205.267L146.647 183.45C146.856 183.243 147.103 183.079 147.375 182.967C147.647 182.856 147.938 182.799 148.232 182.8C148.526 182.801 148.817 182.86 149.088 182.974C149.359 183.087 149.605 183.253 149.813 183.462C150.02 183.67 150.184 183.918 150.295 184.19C150.406 184.462 150.463 184.753 150.462 185.047C150.461 185.341 150.402 185.632 150.288 185.903C150.175 186.174 150.009 186.42 149.8 186.627Z" fill="#E6E6E6"/>
<path d="M164.237 201.174L142.253 222.992C141.831 223.41 141.261 223.644 140.668 223.641C140.074 223.639 139.506 223.401 139.088 222.98C138.669 222.558 138.436 221.988 138.438 221.395C138.44 220.801 138.678 220.233 139.099 219.815L161.084 197.997C161.293 197.79 161.54 197.626 161.812 197.514C162.084 197.403 162.375 197.346 162.669 197.347C162.963 197.348 163.254 197.407 163.525 197.521C163.796 197.634 164.042 197.8 164.249 198.009C164.456 198.217 164.62 198.465 164.732 198.737C164.843 199.009 164.9 199.3 164.899 199.594C164.898 199.888 164.839 200.179 164.725 200.45C164.612 200.721 164.446 200.967 164.237 201.174Z" fill="#E6E6E6"/>
<path d="M171.632 208.625L149.647 230.443C149.439 230.651 149.191 230.816 148.919 230.928C148.647 231.04 148.355 231.097 148.061 231.096C147.766 231.096 147.475 231.037 147.203 230.923C146.932 230.81 146.685 230.644 146.478 230.435C146.271 230.226 146.106 229.978 145.995 229.705C145.884 229.433 145.827 229.141 145.828 228.847C145.83 228.553 145.889 228.261 146.004 227.99C146.118 227.719 146.284 227.472 146.494 227.266L168.478 205.448C168.687 205.239 168.934 205.074 169.207 204.962C169.479 204.849 169.771 204.791 170.065 204.792C170.36 204.792 170.652 204.851 170.924 204.965C171.196 205.078 171.443 205.244 171.65 205.453C171.858 205.663 172.022 205.911 172.133 206.184C172.245 206.456 172.301 206.748 172.3 207.043C172.298 207.338 172.238 207.629 172.123 207.901C172.009 208.172 171.842 208.418 171.632 208.625L171.632 208.625Z" fill="#E6E6E6"/>
<path d="M169.247 181.563L122.603 227.853C122.181 228.268 121.612 228.499 121.02 228.496C120.428 228.492 119.861 228.254 119.444 227.834C119.027 227.414 118.794 226.846 118.795 226.254C118.796 225.662 119.032 225.094 119.45 224.675L166.094 178.385C166.302 178.177 166.55 178.011 166.822 177.899C167.094 177.786 167.386 177.729 167.681 177.729C167.976 177.73 168.267 177.788 168.539 177.902C168.811 178.016 169.058 178.182 169.266 178.391C169.473 178.6 169.638 178.848 169.749 179.121C169.86 179.394 169.917 179.686 169.915 179.981C169.914 180.275 169.854 180.567 169.739 180.838C169.624 181.11 169.457 181.356 169.247 181.563Z" fill="#E6E6E6"/>
<path d="M208.085 202.729L200.102 210.651C199.385 211.36 198.416 211.757 197.408 211.752C196.399 211.748 195.433 211.343 194.723 210.627C194.012 209.911 193.615 208.942 193.618 207.934C193.621 206.925 194.025 205.959 194.74 205.248L202.723 197.326C203.439 196.615 204.409 196.217 205.418 196.221C206.428 196.225 207.394 196.63 208.105 197.346C208.816 198.063 209.214 199.032 209.21 200.042C209.206 201.051 208.801 202.018 208.085 202.729Z" fill="#6C63FF"/>
<path d="M122.298 161.911C125.039 151.315 118.67 140.503 108.074 137.763C97.4778 135.022 86.6663 141.391 83.926 151.987C81.1856 162.583 87.554 173.395 98.1502 176.135C108.746 178.875 119.558 172.507 122.298 161.911Z" fill="#6C63FF"/>
<path d="M108.376 164.629C108.131 164.865 107.835 165.042 107.51 165.144C107.185 165.245 106.841 165.27 106.505 165.216L97.6551 163.794C97.3708 163.748 97.0983 163.647 96.8531 163.496C96.6079 163.345 96.3949 163.147 96.2262 162.914C96.0574 162.68 95.9363 162.416 95.8698 162.136C95.8032 161.856 95.7924 161.565 95.8381 161.281C95.8838 160.997 95.9851 160.724 96.1361 160.479C96.2871 160.234 96.485 160.021 96.7183 159.852C96.9517 159.683 97.216 159.562 97.4961 159.496C97.7763 159.429 98.0668 159.418 98.3511 159.464L104.141 160.394L101.225 144.366C101.123 143.794 101.252 143.206 101.583 142.729C101.914 142.253 102.42 141.927 102.991 141.823C103.562 141.719 104.151 141.846 104.629 142.175C105.107 142.505 105.434 143.01 105.54 143.581L109.011 162.659C109.073 163.004 109.052 163.359 108.95 163.694C108.847 164.03 108.665 164.335 108.42 164.586C108.405 164.6 108.391 164.615 108.376 164.629Z" fill="white"/>
<path d="M370.869 62.8669C370.74 62.7706 370.577 62.7298 370.417 62.7533C370.257 62.7768 370.113 62.8628 370.017 62.9923L333.43 112.2C333.334 112.33 333.293 112.493 333.316 112.653C333.34 112.812 333.426 112.956 333.555 113.053L372.589 142.075C372.719 142.172 372.881 142.213 373.041 142.189C373.201 142.166 373.345 142.08 373.442 141.95L410.028 92.7421C410.125 92.6123 410.165 92.4496 410.142 92.2897C410.118 92.1298 410.032 91.9858 409.903 91.8893L370.869 62.8669Z" fill="white"/>
<path d="M388.937 109.36L360.176 87.9756C359.984 87.8297 359.858 87.6143 359.824 87.376C359.791 87.1377 359.852 86.8958 359.996 86.7026C360.139 86.5095 360.353 86.3808 360.591 86.3444C360.829 86.308 361.072 86.3668 361.267 86.5082L390.028 107.893C390.219 108.039 390.346 108.254 390.379 108.493C390.413 108.731 390.351 108.973 390.208 109.166C390.064 109.359 389.85 109.488 389.612 109.524C389.374 109.561 389.132 109.502 388.937 109.36L388.937 109.36Z" fill="#E6E6E6"/>
<path d="M399.349 95.8723L380.268 81.6849C379.999 81.485 380.025 80.9944 380.327 80.5892C380.628 80.184 381.09 80.0175 381.359 80.2174L400.44 94.4048C400.709 94.6047 400.683 95.0953 400.382 95.5005C400.08 95.9058 399.618 96.0726 399.349 95.8723Z" fill="#E6E6E6"/>
<path d="M396.221 100.079L377.14 85.8914C376.871 85.6916 376.898 85.201 377.199 84.7958C377.5 84.3905 377.962 84.2241 378.231 84.424L397.312 98.6114C397.581 98.8113 397.555 99.3019 397.254 99.7071C396.952 100.112 396.49 100.279 396.221 100.079Z" fill="#E6E6E6"/>
<path d="M385.409 114.105L356.648 92.7198C356.456 92.574 356.33 92.3586 356.296 92.1203C356.263 91.882 356.324 91.64 356.468 91.4469C356.612 91.2538 356.825 91.125 357.063 91.0886C357.301 91.0522 357.544 91.1111 357.739 91.2524L386.5 112.637C386.696 112.78 386.828 112.994 386.866 113.234C386.904 113.473 386.845 113.718 386.703 113.914C386.56 114.11 386.346 114.242 386.106 114.28C385.867 114.318 385.622 114.26 385.426 114.117C385.42 114.113 385.414 114.109 385.409 114.105Z" fill="#E6E6E6"/>
<path d="M381.882 118.85L353.12 97.4649C352.929 97.3191 352.803 97.1037 352.769 96.8654C352.735 96.6271 352.797 96.3851 352.941 96.192C353.084 95.9989 353.298 95.8702 353.536 95.8338C353.774 95.7974 354.017 95.8562 354.211 95.9976L382.973 117.382C383.07 117.453 383.153 117.542 383.216 117.644C383.279 117.746 383.321 117.86 383.34 117.979C383.359 118.098 383.354 118.219 383.326 118.336C383.298 118.453 383.248 118.563 383.177 118.66C383.107 118.758 383.017 118.84 382.915 118.903C382.813 118.966 382.699 119.008 382.58 119.027C382.461 119.045 382.34 119.04 382.223 119.012C382.106 118.984 381.996 118.933 381.899 118.863C381.893 118.858 381.887 118.854 381.882 118.85L381.882 118.85Z" fill="#E6E6E6"/>
<path d="M378.353 123.594L349.592 102.209C349.401 102.064 349.275 101.848 349.241 101.61C349.207 101.372 349.269 101.13 349.413 100.937C349.556 100.743 349.77 100.615 350.008 100.578C350.246 100.542 350.489 100.601 350.683 100.742L379.445 122.127C379.64 122.269 379.772 122.484 379.81 122.723C379.848 122.963 379.789 123.207 379.647 123.403C379.505 123.599 379.29 123.731 379.051 123.769C378.812 123.807 378.567 123.749 378.371 123.607C378.365 123.603 378.359 123.599 378.353 123.594Z" fill="#E6E6E6"/>
<path d="M360.804 117.645L346.216 106.748C346.025 106.603 345.899 106.387 345.865 106.149C345.831 105.911 345.893 105.669 346.037 105.475C346.18 105.282 346.394 105.154 346.632 105.117C346.87 105.081 347.113 105.14 347.308 105.281L361.895 116.178C362.09 116.32 362.222 116.535 362.26 116.774C362.297 117.013 362.239 117.258 362.097 117.454C361.954 117.65 361.74 117.781 361.501 117.82C361.262 117.858 361.017 117.8 360.821 117.658C360.815 117.654 360.809 117.649 360.804 117.645Z" fill="#E6E6E6"/>
<path d="M357.276 122.39L342.689 111.493C342.497 111.347 342.371 111.132 342.337 110.894C342.304 110.655 342.366 110.413 342.509 110.22C342.653 110.027 342.867 109.898 343.105 109.862C343.342 109.826 343.585 109.885 343.78 110.026L358.367 120.922C358.563 121.065 358.694 121.279 358.732 121.519C358.77 121.758 358.711 122.002 358.569 122.199C358.427 122.395 358.212 122.526 357.973 122.564C357.734 122.603 357.49 122.545 357.293 122.403C357.287 122.398 357.282 122.394 357.276 122.39Z" fill="#E6E6E6"/>
<path d="M397.182 85.5858L399.77 82.0887C399.968 81.8332 400.113 81.5411 400.198 81.2293C400.284 80.9175 400.306 80.592 400.266 80.2713C400.225 79.9507 400.121 79.6412 399.961 79.3605C399.801 79.0799 399.587 78.8336 399.331 78.6356C399.076 78.4377 398.784 78.2921 398.472 78.207C398.16 78.1219 397.834 78.0991 397.514 78.1398C397.193 78.1806 396.884 78.284 396.603 78.4444C396.322 78.6047 396.076 78.8188 395.878 79.0743L396.313 79.3964C396.624 79.0092 397.072 78.7572 397.565 78.693C398.057 78.6289 398.555 78.7576 398.954 79.0523L398.977 79.069C399.382 79.3787 399.647 79.8365 399.714 80.3417C399.782 80.8468 399.646 81.3582 399.337 81.7633L396.726 85.2916C396.521 85.5611 396.218 85.7392 395.883 85.7872C395.548 85.8353 395.207 85.7495 394.935 85.5484L394.922 85.539C394.65 85.3318 394.471 85.0251 394.425 84.6863C394.379 84.3474 394.47 84.0042 394.677 83.7321L397.249 80.2603C397.351 80.1217 397.504 80.0292 397.674 80.0032C397.844 79.9772 398.018 80.0199 398.156 80.1217C398.295 80.2236 398.387 80.3764 398.413 80.5464C398.439 80.7165 398.397 80.8899 398.295 81.0285L397.548 82.0377C397.505 82.0954 397.487 82.1678 397.498 82.2388C397.508 82.3098 397.547 82.3737 397.605 82.4165C397.662 82.4592 397.735 82.4772 397.806 82.4666C397.877 82.456 397.941 82.4176 397.983 82.3598L398.733 81.3472C398.825 81.2214 398.892 81.0786 398.93 80.9269C398.967 80.7752 398.975 80.6176 398.951 80.4631C398.928 80.3085 398.874 80.1601 398.794 80.0263C398.713 79.8925 398.607 79.7759 398.481 79.6831C398.355 79.5904 398.212 79.5234 398.061 79.4858C397.909 79.4483 397.751 79.441 397.597 79.4643C397.442 79.4877 397.294 79.5413 397.16 79.622C397.026 79.7027 396.91 79.809 396.817 79.9348L394.244 83.4074C393.951 83.7941 393.824 84.281 393.889 84.7615C393.955 85.242 394.209 85.6767 394.595 85.9703L394.613 85.9837C395 86.2694 395.485 86.3912 395.961 86.3227C396.437 86.2543 396.867 86.0012 397.159 85.6181C397.167 85.6067 397.175 85.5953 397.182 85.5858Z" fill="#38A3A5"/>
<path d="M373.716 129.758C373.289 130.337 372.76 130.835 372.156 131.228C371.881 131.409 371.59 131.566 371.288 131.697C370.313 132.125 369.243 132.288 368.185 132.169C367.127 132.05 366.119 131.654 365.264 131.021C364.408 130.388 363.735 129.54 363.312 128.563C362.889 127.586 362.731 126.515 362.855 125.458C362.867 125.351 362.883 125.245 362.901 125.14C363.055 124.24 363.412 123.387 363.943 122.645C364.474 121.903 365.166 121.291 365.968 120.854C366.769 120.418 367.659 120.169 368.571 120.126C369.482 120.082 370.392 120.246 371.231 120.604C372.071 120.963 372.818 121.506 373.417 122.195C374.016 122.883 374.452 123.698 374.691 124.579C374.93 125.46 374.966 126.383 374.798 127.28C374.629 128.177 374.259 129.024 373.716 129.758L373.716 129.758Z" fill="#E4E4E4"/>
<path d="M368.504 127.17C369.017 127.549 369.741 127.441 370.12 126.928C370.5 126.415 370.391 125.692 369.879 125.312C369.366 124.933 368.642 125.041 368.263 125.554C367.883 126.067 367.991 126.79 368.504 127.17Z" fill="#38A3A5"/>
<path d="M362.901 125.139C363.638 125 364.704 124.703 364.842 125.59C364.922 126.019 364.886 126.911 365.559 126.808L370.8 126.025C370.899 126.011 370.999 126.017 371.094 126.042C371.19 126.067 371.28 126.111 371.359 126.171C371.437 126.232 371.503 126.307 371.552 126.394C371.601 126.48 371.633 126.575 371.644 126.673L372.157 131.228C371.881 131.409 371.59 131.566 371.288 131.697L362.855 125.457L362.901 125.139Z" fill="#3F3D56"/>
<path d="M376.338 80.6751C375.911 81.2547 375.382 81.7528 374.778 82.1457C374.503 82.3262 374.212 82.4831 373.91 82.6148C372.935 83.0423 371.865 83.205 370.807 83.0861C369.749 82.9673 368.741 82.5713 367.886 81.9382C367.03 81.305 366.357 80.4571 365.934 79.4802C365.511 78.5034 365.353 77.4322 365.477 76.3749C365.489 76.2684 365.505 76.1624 365.523 76.0569C365.678 75.1575 366.034 74.3047 366.565 73.5626C367.096 72.8204 367.788 72.2082 368.59 71.7718C369.391 71.3355 370.281 71.0863 371.193 71.0429C372.104 70.9996 373.014 71.1632 373.853 71.5216C374.693 71.88 375.44 72.4238 376.039 73.1122C376.638 73.8006 377.074 74.6158 377.313 75.4965C377.552 76.3772 377.588 77.3007 377.42 78.1975C377.251 79.0944 376.881 79.9415 376.338 80.6751L376.338 80.6751Z" fill="#E4E4E4"/>
<path d="M371.126 78.0875C371.639 78.4671 372.363 78.359 372.742 77.846C373.122 77.3331 373.014 76.6095 372.501 76.23C371.988 75.8504 371.264 75.9586 370.885 76.4715C370.505 76.9844 370.613 77.708 371.126 78.0875Z" fill="#38A3A5"/>
<path d="M365.523 76.057C366.259 75.9176 367.326 75.6203 367.464 76.5073C367.544 76.9371 367.508 77.8283 368.181 77.7261L373.422 76.9427C373.52 76.9287 373.62 76.9344 373.716 76.9596C373.812 76.9847 373.902 77.0288 373.981 77.0892C374.059 77.1496 374.125 77.2251 374.174 77.3112C374.223 77.3974 374.254 77.4925 374.266 77.5909L374.778 82.1458C374.503 82.3263 374.212 82.4832 373.91 82.6149L365.477 76.375L365.523 76.057Z" fill="#3F3D56"/>
<path d="M395.053 85.0276C395.336 85.2375 395.736 85.1777 395.946 84.8941C396.156 84.6104 396.096 84.2104 395.813 84.0005C395.529 83.7906 395.129 83.8504 394.919 84.134C394.709 84.4177 394.769 84.8177 395.053 85.0276Z" fill="#38A3A5"/>
<g clip-path="url(#clip0)">
<path d="M93.8145 314.674L90.5345 301.738C84.7189 299.273 78.769 297.138 72.713 295.344L72.299 301.355L70.62 294.732C63.1095 292.585 58 291.641 58 291.641C58 291.641 64.9 317.885 79.377 337.949L96.244 340.912L83.1405 342.801C84.9615 344.993 86.9186 347.067 89 349.012C110.057 368.558 133.512 377.526 141.386 369.042C149.261 360.558 138.574 337.836 117.517 318.292C110.989 312.233 102.788 307.371 94.579 303.543L93.8145 314.674Z" fill="#F2F2F2"/>
<path d="M125.008 300.623L128.887 287.854C125.182 282.738 121.193 277.835 116.937 273.168L113.475 278.101L115.461 271.563C110.14 265.845 106.255 262.395 106.255 262.395C106.255 262.395 98.597 288.429 100.617 313.087L113.525 324.342L101.329 319.186C101.755 322.004 102.359 324.791 103.136 327.533C111.059 355.15 126.501 374.951 137.627 371.759C148.753 368.567 151.35 343.591 143.427 315.974C140.971 307.413 136.464 299.011 131.416 291.492L125.008 300.623Z" fill="#F2F2F2"/>
<path d="M317.876 88.4915H315.829V32.4415C315.829 28.1812 314.99 23.9627 313.36 20.0267C311.73 16.0907 309.34 12.5144 306.328 9.5019C303.315 6.48942 299.739 4.0998 295.803 2.46946C291.867 0.839122 287.648 0 283.388 0H164.634C156.03 0 147.779 3.41793 141.695 9.5019C135.611 15.5859 132.193 23.8375 132.193 32.4415V339.941C132.193 344.202 133.032 348.42 134.662 352.356C136.293 356.292 138.682 359.869 141.695 362.881C144.707 365.894 148.284 368.283 152.22 369.914C156.156 371.544 160.374 372.383 164.634 372.383H283.388C291.992 372.383 300.243 368.965 306.327 362.881C312.411 356.797 315.829 348.545 315.829 339.941V128.389H317.875L317.876 88.4915Z" fill="#E6E6E6"/>
<path d="M284.697 8.43701H269.197C269.91 10.1848 270.182 12.0811 269.989 13.9588C269.797 15.8366 269.145 17.6381 268.092 19.2047C267.039 20.7713 265.617 22.0549 263.951 22.9424C262.285 23.8299 260.427 24.2941 258.539 24.294H190.506C188.619 24.2939 186.76 23.8296 185.095 22.9421C183.429 22.0545 182.007 20.7709 180.954 19.2043C179.901 17.6377 179.25 15.8362 179.057 13.9586C178.865 12.0809 179.137 10.1847 179.849 8.43701H165.371C158.946 8.43701 152.784 10.9895 148.24 15.5329C143.697 20.0764 141.144 26.2386 141.144 32.664V339.717C141.144 346.143 143.697 352.305 148.24 356.849C152.784 361.392 158.946 363.945 165.371 363.945H284.697C291.122 363.945 297.285 361.392 301.828 356.849C306.372 352.305 308.924 346.143 308.924 339.717V32.6635C308.924 26.2382 306.371 20.0761 301.828 15.5328C297.284 10.9894 291.122 8.43701 284.697 8.43701Z" fill="white"/>
<path d="M209.829 130.752C209.829 128.605 210.394 126.497 211.467 124.638C212.541 122.78 214.085 121.237 215.944 120.165C214.086 119.091 211.977 118.526 209.831 118.526C207.685 118.526 205.577 119.09 203.718 120.163C201.86 121.236 200.316 122.779 199.243 124.638C198.17 126.496 197.605 128.605 197.605 130.751C197.605 132.897 198.17 135.005 199.243 136.864C200.316 138.722 201.86 140.265 203.718 141.338C205.577 142.411 207.685 142.976 209.831 142.976C211.977 142.976 214.086 142.41 215.944 141.337C214.085 140.265 212.541 138.722 211.467 136.864C210.394 135.006 209.829 132.898 209.829 130.752Z" fill="#CCCCCC"/>
<path d="M225.197 130.752C225.197 128.605 225.762 126.497 226.835 124.638C227.909 122.78 229.453 121.237 231.312 120.165C229.454 119.091 227.346 118.526 225.2 118.526C223.054 118.526 220.945 119.09 219.087 120.163C217.228 121.236 215.685 122.779 214.611 124.638C213.538 126.496 212.973 128.605 212.973 130.751C212.973 132.897 213.538 135.005 214.611 136.864C215.685 138.722 217.228 140.265 219.087 141.338C220.945 142.411 223.054 142.976 225.2 142.976C227.346 142.976 229.454 142.41 231.312 141.337C229.453 140.265 227.909 138.722 226.836 136.864C225.762 135.006 225.197 132.898 225.197 130.752Z" fill="#CCCCCC"/>
<path d="M240.217 142.976C246.969 142.976 252.442 137.503 252.442 130.751C252.442 123.999 246.969 118.526 240.217 118.526C233.465 118.526 227.992 123.999 227.992 130.751C227.992 137.503 233.465 142.976 240.217 142.976Z" fill="#38A3A5"/>
<path d="M260.648 168.935H189.398C188.72 168.934 188.069 168.664 187.59 168.184C187.11 167.705 186.84 167.054 186.839 166.376V95.126C186.84 94.4477 187.11 93.7974 187.59 93.3177C188.069 92.8381 188.72 92.5683 189.398 92.5675H260.648C261.326 92.5683 261.977 92.8381 262.456 93.3177C262.936 93.7974 263.206 94.4477 263.206 95.126V166.376C263.206 167.054 262.936 167.705 262.456 168.184C261.977 168.664 261.326 168.934 260.648 168.935ZM189.398 93.5915C188.991 93.5919 188.601 93.7538 188.313 94.0415C188.025 94.3293 187.863 94.7195 187.863 95.1265V166.377C187.863 166.783 188.025 167.174 188.313 167.461C188.601 167.749 188.991 167.911 189.398 167.911H260.648C261.055 167.911 261.445 167.749 261.733 167.461C262.021 167.174 262.183 166.783 262.183 166.377V95.1265C262.183 94.7195 262.021 94.3293 261.733 94.0415C261.445 93.7538 261.055 93.5919 260.648 93.5915H189.398Z" fill="#CCCCCC"/>
<path d="M276.557 223.551H167.281V224.575H276.557V223.551Z" fill="#CCCCCC"/>
<path d="M170.732 217.161C172.638 217.161 174.183 215.616 174.183 213.71C174.183 211.804 172.638 210.259 170.732 210.259C168.826 210.259 167.281 211.804 167.281 213.71C167.281 215.616 168.826 217.161 170.732 217.161Z" fill="#38A3A5"/>
<path d="M276.557 258.059H167.281V259.083H276.557V258.059Z" fill="#CCCCCC"/>
<path d="M170.732 251.669C172.638 251.669 174.183 250.124 174.183 248.218C174.183 246.313 172.638 244.767 170.732 244.767C168.826 244.767 167.281 246.313 167.281 248.218C167.281 250.124 168.826 251.669 170.732 251.669Z" fill="#38A3A5"/>
<path d="M274.557 297.355H240.023C239.427 297.355 238.855 297.117 238.433 296.695C238.011 296.274 237.774 295.702 237.773 295.105V283.001C237.774 282.405 238.011 281.833 238.433 281.411C238.855 280.989 239.427 280.752 240.023 280.751H274.557C275.154 280.752 275.726 280.989 276.148 281.411C276.569 281.833 276.807 282.405 276.807 283.001V295.105C276.807 295.702 276.569 296.274 276.148 296.695C275.726 297.117 275.154 297.355 274.557 297.355Z" fill="#38A3A5"/>
<path d="M181.989 217.161C183.895 217.161 185.44 215.616 185.44 213.71C185.44 211.804 183.895 210.259 181.989 210.259C180.083 210.259 178.538 211.804 178.538 213.71C178.538 215.616 180.083 217.161 181.989 217.161Z" fill="#38A3A5"/>
<path d="M193.246 217.161C195.152 217.161 196.697 215.616 196.697 213.71C196.697 211.804 195.152 210.259 193.246 210.259C191.34 210.259 189.795 211.804 189.795 213.71C189.795 215.616 191.34 217.161 193.246 217.161Z" fill="#38A3A5"/>
<path d="M181.989 251.669C183.895 251.669 185.44 250.124 185.44 248.218C185.44 246.313 183.895 244.767 181.989 244.767C180.083 244.767 178.538 246.313 178.538 248.218C178.538 250.124 180.083 251.669 181.989 251.669Z" fill="#38A3A5"/>
<path d="M193.246 251.669C195.152 251.669 196.697 250.124 196.697 248.218C196.697 246.313 195.152 244.767 193.246 244.767C191.34 244.767 189.795 246.313 189.795 248.218C189.795 250.124 191.34 251.669 193.246 251.669Z" fill="#38A3A5"/>
<path d="M429.033 373.539H70.04C69.2715 373.539 68.649 373.266 68.649 372.93C68.649 372.594 69.2715 372.32 70.04 372.32H429.033C429.801 372.32 430.424 372.593 430.424 372.93C430.424 373.266 429.801 373.539 429.033 373.539Z" fill="#3F3D56"/>
<path d="M340.338 244.731C340.584 244.843 340.819 244.974 341.044 245.124L363.47 235.553L364.27 229.645L373.231 229.59L372.702 243.139L343.102 250.967C343.04 251.173 342.965 251.375 342.878 251.572C342.45 252.485 341.762 253.251 340.9 253.774C340.038 254.298 339.04 254.555 338.033 254.513C337.025 254.471 336.052 254.133 335.236 253.54C334.421 252.947 333.798 252.126 333.447 251.181C333.096 250.236 333.032 249.208 333.264 248.226C333.495 247.244 334.011 246.353 334.747 245.664C335.484 244.975 336.407 244.518 337.402 244.352C338.397 244.186 339.418 244.318 340.338 244.731Z" fill="#FFB8B8"/>
<path d="M376.49 367.51H370.36L367.444 343.866L376.491 343.867L376.49 367.51Z" fill="#FFB8B8"/>
<path d="M365.981 365.759H377.803V373.202H358.538C358.538 371.228 359.322 369.335 360.718 367.939C362.114 366.543 364.007 365.759 365.981 365.759Z" fill="#2F2E41"/>
<path d="M400.33 365.779L394.229 366.38L389.009 343.136L398.013 342.249L400.33 365.779Z" fill="#FFB8B8"/>
<path d="M389.701 365.066L401.466 363.907L402.195 371.314L383.023 373.203C382.927 372.23 383.024 371.248 383.307 370.312C383.591 369.377 384.056 368.507 384.676 367.751C385.296 366.995 386.059 366.369 386.921 365.909C387.783 365.448 388.728 365.161 389.701 365.066Z" fill="#2F2E41"/>
<path d="M378.196 204.567C384.979 204.567 390.477 199.069 390.477 192.287C390.477 185.505 384.979 180.006 378.196 180.006C371.414 180.006 365.916 185.505 365.916 192.287C365.916 199.069 371.414 204.567 378.196 204.567Z" fill="#FFB8B8"/>
<path d="M368.99 362.729C368.463 362.73 367.953 362.546 367.549 362.207C367.145 361.869 366.874 361.399 366.783 360.88C363.61 343.268 353.239 285.678 352.991 284.082C352.985 284.046 352.983 284.009 352.983 283.972V279.678C352.982 279.521 353.031 279.369 353.123 279.242L354.493 277.323C354.558 277.23 354.643 277.154 354.742 277.1C354.841 277.046 354.952 277.015 355.064 277.01C362.875 276.644 388.456 275.571 389.692 277.115C390.934 278.666 390.495 283.368 390.394 284.295L390.399 284.392L401.892 357.889C401.982 358.475 401.838 359.073 401.49 359.554C401.142 360.034 400.62 360.359 400.035 360.457L392.856 361.639C392.322 361.725 391.774 361.616 391.313 361.332C390.852 361.049 390.508 360.609 390.344 360.093C388.123 352.999 380.679 329.134 378.099 319.899C378.083 319.841 378.046 319.79 377.995 319.757C377.945 319.724 377.884 319.71 377.823 319.719C377.763 319.727 377.708 319.757 377.669 319.803C377.629 319.849 377.608 319.908 377.609 319.969C377.738 328.771 378.049 351.23 378.157 358.987L378.168 359.823C378.173 360.388 377.966 360.935 377.587 361.355C377.208 361.775 376.685 362.038 376.122 362.091L369.2 362.72C369.13 362.726 369.059 362.729 368.99 362.729Z" fill="#2F2E41"/>
<path d="M370.402 209.396C368.259 210.67 366.977 213.011 366.241 215.394C364.879 219.804 364.058 224.365 363.799 228.973L363.021 242.774L353.394 279.359C361.738 286.419 366.551 284.814 377.784 279.039C389.016 273.264 390.3 280.965 390.3 280.965L392.546 249.836L395.755 215.819C395.035 214.952 394.22 214.168 393.325 213.482C390.358 211.176 386.907 209.572 383.231 208.793C379.555 208.014 375.75 208.08 372.103 208.985L370.402 209.396Z" fill="#38A3A5"/>
<path d="M367.275 252.12C367.534 252.217 367.785 252.335 368.026 252.471L390.2 241.373L390.568 235.36L399.715 234.729L400.205 248.436L370.572 258.235C370.33 259.273 369.778 260.213 368.989 260.929C368.2 261.645 367.212 262.105 366.155 262.246C365.099 262.387 364.025 262.203 363.076 261.718C362.126 261.234 361.347 260.472 360.842 259.534C360.336 258.596 360.128 257.526 360.245 256.467C360.362 255.408 360.799 254.409 361.497 253.604C362.196 252.8 363.123 252.226 364.155 251.961C365.187 251.696 366.275 251.751 367.275 252.12Z" fill="#FFB8B8"/>
<path d="M395.595 215.975C401.05 217.901 402.012 238.762 402.012 238.762C395.593 235.232 387.891 241.009 387.891 241.009C387.891 241.009 386.286 235.553 384.361 228.492C383.779 226.506 383.71 224.406 384.159 222.386C384.607 220.366 385.56 218.492 386.928 216.939C386.928 216.939 390.139 214.048 395.595 215.975Z" fill="#38A3A5"/>
<path d="M389.208 195.535C387.678 194.31 385.59 196.535 385.59 196.535L384.366 185.519C384.366 185.519 376.715 186.435 371.819 185.213C366.923 183.991 366.158 189.65 366.158 189.65C365.905 187.364 365.854 185.06 366.005 182.765C366.311 180.011 370.289 177.257 377.327 175.42C384.366 173.584 388.038 181.541 388.038 181.541C392.935 183.989 390.738 196.759 389.208 195.535Z" fill="#2F2E41"/>
</g>
<defs>
<clipPath id="clip0">
<rect width="372.424" height="373.539" fill="white" transform="translate(58)"/>
</clipPath>
</defs>
</svg>
