<svg width="145" height="47" viewBox="0 0 145 47" fill="none" xmlns="http://www.w3.org/2000/svg">
<g filter="url(#filter0_d)">
<rect x="2" y="2" width="137" height="39" rx="5" fill="#22577A"/>
</g>
<g clip-path="url(#clip0)">
<path d="M95.373 24.85C92.2089 21.6858 92.209 16.5373 95.373 13.3731C98.5372 10.209 103.686 10.209 106.85 13.3731C109.534 16.0575 109.941 20.0498 108.07 23.1674C108.07 23.1674 107.936 23.3928 108.118 23.5741C109.153 24.6091 112.258 27.7145 112.258 27.7145C113.082 28.5385 113.278 29.6908 112.547 30.4218L112.422 30.5475C111.691 31.2784 110.538 31.0823 109.714 30.2582C109.714 30.2582 106.616 27.1593 105.583 26.1265C105.393 25.9364 105.167 26.0707 105.167 26.0707C102.05 27.9408 98.0574 27.5343 95.373 24.85ZM105.352 23.3517C107.69 21.0137 107.689 17.2095 105.351 14.8715C103.013 12.5336 99.2093 12.5336 96.8714 14.8715C94.5334 17.2095 94.5334 21.0137 96.8714 23.3517C99.2094 25.6895 103.013 25.6895 105.352 23.3517Z" fill="#38A3A5"/>
<path d="M104.834 18.6299C104.942 18.6299 105.053 18.6085 105.16 18.5635C105.586 18.3832 105.785 17.8917 105.605 17.4657C104.472 14.7881 101.372 13.5316 98.694 14.6646C98.268 14.8449 98.0688 15.3363 98.249 15.7623C98.4294 16.1884 98.9207 16.3875 99.3468 16.2073C101.174 15.4343 103.289 16.2916 104.062 18.1184C104.197 18.4379 104.507 18.6299 104.834 18.6299Z" fill="#38A3A5"/>
</g>
<path d="M12.8257 31.203C12.4197 31.203 12.0717 31.0677 11.7817 30.797C11.511 30.507 11.3757 30.159 11.3757 29.753V13.02C11.3757 12.614 11.511 12.2757 11.7817 12.005C12.0717 11.715 12.4197 11.57 12.8257 11.57H24.3967C24.8027 11.57 25.141 11.715 25.4117 12.005C25.6824 12.2757 25.8177 12.614 25.8177 13.02C25.8177 13.4067 25.6824 13.745 25.4117 14.035C25.141 14.325 24.8027 14.47 24.3967 14.47H14.2757V19.458H21.9897C22.3957 19.458 22.734 19.603 23.0047 19.893C23.2754 20.183 23.4107 20.531 23.4107 20.937C23.4107 21.3237 23.2754 21.662 23.0047 21.952C22.734 22.2227 22.3957 22.358 21.9897 22.358H14.2757V29.753C14.2757 30.159 14.1307 30.507 13.8407 30.797C13.57 31.0677 13.2317 31.203 12.8257 31.203ZM28.4293 31C28.0233 31 27.6753 30.8647 27.3853 30.594C27.1146 30.304 26.9793 29.956 26.9793 29.55C26.9793 29.144 27.1146 28.8057 27.3853 28.535C27.6753 28.245 28.0233 28.1 28.4293 28.1H30.4593V14.47H28.4293C28.0233 14.47 27.6753 14.325 27.3853 14.035C27.1146 13.745 26.9793 13.397 26.9793 12.991C26.9793 12.585 27.1146 12.2467 27.3853 11.976C27.6753 11.7053 28.0233 11.57 28.4293 11.57H35.3603C35.7663 11.57 36.1046 11.7053 36.3753 11.976C36.6459 12.2467 36.7813 12.585 36.7813 12.991C36.7813 13.397 36.6459 13.745 36.3753 14.035C36.1046 14.325 35.7663 14.47 35.3603 14.47H33.3593V28.1H35.3603C35.7856 28.1 36.1239 28.245 36.3753 28.535C36.6459 28.8057 36.7813 29.144 36.7813 29.55C36.7813 29.956 36.6459 30.304 36.3753 30.594C36.1046 30.8647 35.7663 31 35.3603 31H28.4293ZM41.4002 31.174C41.0329 31.174 40.7042 31.029 40.4142 30.739C40.1242 30.449 39.9792 30.1203 39.9792 29.753L40.0082 12.846C40.0082 12.4593 40.1339 12.1307 40.3852 11.86C40.6559 11.57 40.9942 11.425 41.4002 11.425C41.6322 11.425 41.8545 11.483 42.0672 11.599C42.2799 11.6957 42.4539 11.8407 42.5892 12.034L51.6662 25.171V12.846C51.6662 12.4593 51.8015 12.121 52.0722 11.831C52.3622 11.541 52.7102 11.396 53.1162 11.396C53.5029 11.396 53.8315 11.541 54.1022 11.831C54.3922 12.121 54.5372 12.4593 54.5372 12.846V29.753C54.5372 30.159 54.4019 30.4973 54.1312 30.768C53.8605 31.0387 53.5222 31.174 53.1162 31.174C52.9035 31.174 52.6812 31.116 52.4492 31C52.2365 30.884 52.0625 30.7293 51.9272 30.536L42.8792 17.457L42.8502 29.753C42.8502 30.159 42.7052 30.4973 42.4152 30.768C42.1445 31.0387 41.8062 31.174 41.4002 31.174ZM63.4792 31.348C62.8025 31.348 62.1162 31.2803 61.4202 31.145C60.7242 31.029 60.2505 30.9323 59.9992 30.855C59.6898 30.7583 59.4288 30.5747 59.2162 30.304C59.0035 30.0333 58.8972 29.7433 58.8972 29.434V12.991C58.8972 12.585 59.0325 12.2467 59.3032 11.976C59.5932 11.7053 59.9412 11.57 60.3472 11.57C62.2998 11.57 64.2718 11.86 66.2632 12.44C68.2545 13.02 69.9752 14.1027 71.4252 15.688C72.8945 17.2733 73.6292 19.4677 73.6292 22.271C73.6292 24.301 73.1845 26.0023 72.2952 27.375C71.4058 28.7283 70.1975 29.7337 68.6702 30.391C67.1428 31.029 65.4125 31.348 63.4792 31.348ZM63.4792 28.448C65.7412 28.448 67.5102 27.926 68.7862 26.882C70.0815 25.838 70.7292 24.301 70.7292 22.271C70.7292 19.7577 69.9075 17.892 68.2642 16.674C66.6402 15.456 64.4845 14.7407 61.7972 14.528V28.274C62.4545 28.39 63.0152 28.448 63.4792 28.448ZM84.4185 31.174C82.8719 31.174 81.4509 30.826 80.1555 30.13C78.8602 29.434 77.8355 28.4287 77.0815 27.114C76.3275 25.78 75.9505 24.2237 75.9505 22.445C75.9505 20.5697 76.3855 18.7813 77.2555 17.08C78.1449 15.3593 79.2855 13.9867 80.6775 12.962C82.0889 11.918 83.5292 11.396 84.9985 11.396C85.6172 11.396 86.2262 11.4927 86.8255 11.686C87.4442 11.8793 87.9952 12.121 88.4785 12.411C88.7105 12.179 89.0005 12.063 89.3485 12.063C89.7352 12.063 90.0542 12.1983 90.3055 12.469C90.5569 12.7203 90.6825 13.0297 90.6825 13.397V15.253C90.6825 15.6397 90.5375 15.978 90.2475 16.268C89.9769 16.558 89.6385 16.703 89.2325 16.703C88.8459 16.703 88.5172 16.587 88.2465 16.355C87.9952 16.123 87.8695 15.8523 87.8695 15.543V15.34C87.1542 14.586 86.1295 14.209 84.7955 14.209C83.8289 14.209 82.8815 14.6053 81.9535 15.398C81.0255 16.1713 80.2715 17.196 79.6915 18.472C79.1309 19.748 78.8505 21.0723 78.8505 22.445C78.8505 23.663 79.1019 24.7263 79.6045 25.635C80.1072 26.5243 80.7742 27.2107 81.6055 27.694C82.4562 28.158 83.3939 28.39 84.4185 28.39C86.2939 28.39 87.8405 27.5877 89.0585 25.983C89.2325 25.7703 89.4065 25.6253 89.5805 25.548C89.7545 25.4513 89.9575 25.403 90.1895 25.403C90.5955 25.403 90.9339 25.5383 91.2045 25.809C91.4945 26.0603 91.6395 26.4083 91.6395 26.853C91.6395 27.1817 91.5525 27.4717 91.3785 27.723C90.5859 28.8443 89.5805 29.7047 88.3625 30.304C87.1639 30.884 85.8492 31.174 84.4185 31.174ZM116.477 31.174C116.11 31.174 115.781 31.029 115.491 30.739C115.201 30.449 115.056 30.1203 115.056 29.753L115.085 12.846C115.085 12.4593 115.211 12.1307 115.462 11.86C115.733 11.57 116.071 11.425 116.477 11.425C116.709 11.425 116.932 11.483 117.144 11.599C117.357 11.6957 117.531 11.8407 117.666 12.034L126.743 25.171V12.846C126.743 12.4593 126.879 12.121 127.149 11.831C127.439 11.541 127.787 11.396 128.193 11.396C128.58 11.396 128.909 11.541 129.179 11.831C129.469 12.121 129.614 12.4593 129.614 12.846V29.753C129.614 30.159 129.479 30.4973 129.208 30.768C128.938 31.0387 128.599 31.174 128.193 31.174C127.981 31.174 127.758 31.116 127.526 31C127.314 30.884 127.14 30.7293 127.004 30.536L117.956 17.457L117.927 29.753C117.927 30.159 117.782 30.4973 117.492 30.768C117.222 31.0387 116.883 31.174 116.477 31.174Z" fill="#38A3A5"/>
<defs>
<filter id="filter0_d" x="0" y="0" width="145" height="47" filterUnits="userSpaceOnUse" color-interpolation-filters="sRGB">
<feFlood flood-opacity="0" result="BackgroundImageFix"/>
<feColorMatrix in="SourceAlpha" type="matrix" values="0 0 0 0 0 0 0 0 0 0 0 0 0 0 0 0 0 0 127 0" result="hardAlpha"/>
<feOffset dx="2" dy="2"/>
<feGaussianBlur stdDeviation="2"/>
<feComposite in2="hardAlpha" operator="out"/>
<feColorMatrix type="matrix" values="0 0 0 0 0 0 0 0 0 0 0 0 0 0 0 0 0 0 0.25 0"/>
<feBlend mode="normal" in2="BackgroundImageFix" result="effect1_dropShadow"/>
<feBlend mode="normal" in="SourceGraphic" in2="effect1_dropShadow" result="shape"/>
</filter>
<clipPath id="clip0">
<rect width="20" height="20" fill="white" transform="matrix(-1 0 0 1 113 11)"/>
</clipPath>
</defs>
</svg>
